<?xml version="1.0" encoding="utf-8"?>
<!-- Generator: Adobe Illustrator 18.0.0, SVG Export Plug-In . SVG Version: 6.00 Build 0)  -->
<!DOCTYPE svg PUBLIC "-//W3C//DTD SVG 1.0//EN" "http://www.w3.org/TR/2001/REC-SVG-20010904/DTD/svg10.dtd">
<svg version="1.0" id="Layer_1" xmlns="http://www.w3.org/2000/svg" xmlns:xlink="http://www.w3.org/1999/xlink" x="0px" y="0px"
	 viewBox="0 0 50 50" enable-background="new 0 0 50 50" xml:space="preserve">
<g id="XMLID_78_">
	<g id="XMLID_79_">
		<g id="XMLID_80_">
			<path id="XMLID_81_" fill="#FFFFFF" d="M35.7,45.7c0.3,1-0.2,2-1.2,2.4c-3.6,1.4-7,1.9-11.4,1.9C11.2,50,0.7,41.5,0.7,27.4
				C0.7,12.7,11.4,0,27.6,0c12.6,0,21.7,8.7,21.7,20.8c0,10.5-5.9,17.1-13.6,17.1c-3.4,0-5.8-1.7-6.2-5.5h-0.1
				c-2.2,3.7-5.5,5.5-9.3,5.5c-4.7,0-8-3.4-8-9.3c0-8.8,6.5-16.7,16.8-16.7c1.9,0,3.9,0.3,5.7,0.7c1.7,0.4,2.7,2.1,2.4,3.7
				l-1.7,10.6C34.5,31.1,35,33,37,33.1c3.1,0.1,7-3.9,7-12.1c0-9.3-6-16.6-17.2-16.6c-11,0-20.6,8.6-20.6,22.3
				c0,12,7.7,18.8,18.4,18.8c2.8,0,5.7-0.5,8.2-1.3c0.6-0.2,1.2-0.2,1.8,0.1C35.1,44.6,35.6,45.1,35.7,45.7L35.7,45.7z M29.8,18.4
				c0.1-0.4-0.2-0.7-0.6-0.8c-0.4-0.1-1-0.1-1.6-0.1c-4.7,0-8.5,4.7-8.5,10.2c0,2.7,1.2,4.5,3.6,4.5c2.7,0,5.5-3.4,6.1-7.5
				L29.8,18.4z"/>
		</g>
	</g>
</g>
</svg>
