<?xml version="1.0" encoding="utf-8"?>
<!-- Generator: Adobe Illustrator 18.0.0, SVG Export Plug-In . SVG Version: 6.00 Build 0)  -->
<!DOCTYPE svg PUBLIC "-//W3C//DTD SVG 1.0//EN" "http://www.w3.org/TR/2001/REC-SVG-20010904/DTD/svg10.dtd">
<svg version="1.0" id="Layer_1" xmlns="http://www.w3.org/2000/svg" xmlns:xlink="http://www.w3.org/1999/xlink" x="0px" y="0px"
	 viewBox="0 0 50 50" enable-background="new 0 0 50 50" xml:space="preserve">
<path fill="#FFFFFF" d="M14.5,42.9c1.5-0.6,3.1-0.8,4.6-0.3c1.9,0.5,3.9,0.8,5.9,0.8c11.4,0,19.9-8.2,19.9-19.1S36.4,5.1,25,5.1
	S5.1,13.3,5.1,24.3c0,5.6,2.2,10.6,6.1,14.1c1.4,1.3,2.3,3.1,2.3,5L14.5,42.9z M25,0.2c14,0,24.8,10.2,24.8,24.1S39,48.3,25,48.3
	c-2.4,0-4.8-0.3-7.2-1c-0.4-0.1-0.9-0.1-1.3,0.1l-4.9,2.2c-1,0.4-2.2,0-2.6-1c-0.1-0.2-0.2-0.5-0.2-0.7l-0.1-4.4
	c0-0.5-0.3-1.1-0.7-1.4c-4.8-4.3-7.8-10.6-7.8-17.8C0.2,10.4,11,0.2,25,0.2z M10.1,31.3l7.3-11.6c1.1-1.7,3.4-2.3,5.1-1.2
	c0.1,0.1,0.2,0.1,0.3,0.2l5.8,4.3c0.5,0.4,1.3,0.4,1.8,0l7.8-6c1-0.8,2.4,0.5,1.7,1.6l-7.3,11.6c-1.1,1.7-3.4,2.3-5.1,1.2
	c-0.1-0.1-0.2-0.1-0.3-0.2l-5.8-4.3c-0.5-0.4-1.3-0.4-1.8,0l-7.8,5.9C10.8,33.7,9.4,32.4,10.1,31.3L10.1,31.3z"/>
</svg>
