<?xml version="1.0" encoding="utf-8"?>
<!-- Generator: Adobe Illustrator 18.0.0, SVG Export Plug-In . SVG Version: 6.00 Build 0)  -->
<!DOCTYPE svg PUBLIC "-//W3C//DTD SVG 1.0//EN" "http://www.w3.org/TR/2001/REC-SVG-20010904/DTD/svg10.dtd">
<svg version="1.0" id="Layer_1" xmlns="http://www.w3.org/2000/svg" xmlns:xlink="http://www.w3.org/1999/xlink" x="0px" y="0px"
	 viewBox="0 0 50 50" enable-background="new 0 0 50 50" xml:space="preserve">
<path id="XMLID_469_" fill="#FFFFFF" d="M36.9,28.7c-0.1,0-3.7-1.8-4.3-2.1c-0.3-0.1-0.5-0.2-0.8-0.2c-0.5,0-0.9,0.2-1.2,0.7
	c-0.4,0.5-1.5,1.8-1.8,2.2c0,0.1-0.1,0.1-0.1,0.1c0,0-0.6-0.2-0.8-0.3c-3.9-1.7-6.8-5.7-7.2-6.4c-0.1-0.1-0.1-0.1-0.1-0.1
	c0-0.1,0.1-0.2,0.2-0.2c0.2-0.2,0.4-0.5,0.6-0.7c0.1-0.1,0.2-0.2,0.3-0.3c0.3-0.3,0.4-0.6,0.6-0.9l0.1-0.2c0.4-0.7,0.1-1.4,0-1.6
	c-0.1-0.2-1.6-3.8-1.8-4.2c-0.4-0.9-0.9-1.4-1.6-1.4c-0.1,0,0,0-0.3,0c-0.3,0-2.2,0.3-3,0.8c-0.9,0.5-2.3,2.3-2.3,5.3
	c0,2.8,1.7,5.4,2.5,6.3c0,0,0.1,0.1,0.1,0.1c2.9,4.2,6.5,7.3,10.1,8.8c3.5,1.4,5.1,1.6,6.1,1.6c0,0,0,0,0,0c0.4,0,0.7,0,1-0.1l0.2,0
	c1.2-0.1,3.9-1.5,4.5-3.2c0.5-1.3,0.6-2.8,0.3-3.3C37.7,29.1,37.4,28.9,36.9,28.7z"/>
<path id="XMLID_470_" fill="#FFFFFF" d="M25.4,0.3C12,0.3,1.1,11.1,1.1,24.4c0,4.3,1.2,8.5,3.3,12.2L0.3,48.9
	c-0.1,0.2,0,0.5,0.1,0.7c0.1,0.1,0.3,0.2,0.5,0.2c0.1,0,0.1,0,0.2,0l12.8-4.1c3.5,1.9,7.5,2.9,11.5,2.9c13.4,0,24.3-10.8,24.3-24.1
	C49.7,11.1,38.8,0.3,25.4,0.3z M25.4,43.5c-3.8,0-7.4-1.1-10.6-3.2c-0.1-0.1-0.2-0.1-0.4-0.1c-0.1,0-0.1,0-0.2,0l-6.4,2l2.1-6.1
	c0.1-0.2,0-0.4-0.1-0.6c-2.4-3.3-3.7-7.1-3.7-11.2c0-10.5,8.6-19.1,19.3-19.1c10.6,0,19.3,8.6,19.3,19.1
	C44.7,34.9,36.1,43.5,25.4,43.5z"/>
</svg>
