<?xml version="1.0" encoding="utf-8"?>
<!-- Generator: Adobe Illustrator 18.0.0, SVG Export Plug-In . SVG Version: 6.00 Build 0)  -->
<!DOCTYPE svg PUBLIC "-//W3C//DTD SVG 1.0//EN" "http://www.w3.org/TR/2001/REC-SVG-20010904/DTD/svg10.dtd">
<svg version="1.0" id="Layer_1" xmlns="http://www.w3.org/2000/svg" xmlns:xlink="http://www.w3.org/1999/xlink" x="0px" y="0px"
	 viewBox="0 0 50 50" enable-background="new 0 0 50 50" xml:space="preserve">
<g>
	<path fill="#FFFFFF" d="M33.8,26.8v-3.5h3.5v3.5H33.8z"/>
	<path fill="#FFFFFF" d="M25,0l22.9,13.4v23.2L25,50L2.1,36.6V13.4L25,0z M20.9,12.6c-6.5,0-11.8,5.3-11.8,11.8v1.2
		c0,6.5,5.3,11.8,11.8,11.8c1.8,0,3.6-0.4,5.3-1.2l1.4-0.7L26,32.2L24.6,33c-1.1,0.6-2.4,0.9-3.7,0.9c-4.5,0-8.2-3.7-8.2-8.2v-1.2
		c0-4.5,3.7-8.2,8.2-8.2c1.3,0,2.5,0.3,3.7,0.9l1.4,0.7l1.6-3.2l-1.4-0.7C24.5,13.1,22.7,12.6,20.9,12.6z M30.3,16.2v3.5h-3.5v3.5
		h3.5v3.5h-3.5v3.5h3.5v3.5h3.5v-3.5h3.5v3.5h3.5v-3.5h3.5v-3.5h-3.5v-3.5h3.5v-3.5h-3.5v-3.5h-3.5v3.5h-3.5v-3.5H30.3z"/>
</g>
</svg>
