<?xml version="1.0" encoding="utf-8"?>
<!-- Generator: Adobe Illustrator 18.0.0, SVG Export Plug-In . SVG Version: 6.00 Build 0)  -->
<!DOCTYPE svg PUBLIC "-//W3C//DTD SVG 1.0//EN" "http://www.w3.org/TR/2001/REC-SVG-20010904/DTD/svg10.dtd">
<svg version="1.0" id="Layer_1" xmlns="http://www.w3.org/2000/svg" xmlns:xlink="http://www.w3.org/1999/xlink" x="0px" y="0px"
	 viewBox="0 0 50 50" enable-background="new 0 0 50 50" xml:space="preserve">
<g>
	<path fill="#FFFFFF" d="M15.7,0H21v2.2h-3.1v2.2H21v2.2h-5.4V0z"/>
	<path fill="#FFFFFF" d="M22.1,0h5.4V2h-3.1v0.4h3.1v4.5h-5.4v-2h3.1V4.4h-3.1V0z"/>
	<path fill="#FFFFFF" d="M28.5,0h5.4V2h-3.1v0.4h3.1v4.5h-5.4v-2h3.1V4.4h-3.1V0z"/>
	<path fill="#FFFFFF" d="M6.3,10l4.3,35.9l14.4,4L39.4,46l4.2-36H6.3z M35.3,27l-0.1,0.7L34,39.9L25,42.3l-9.1-2.4L15.3,33h4.4
		l0.3,4.6L25,40h0l4.9-2.3l0.5-6.7H15.1l-0.4-4h16.1l0.4-4H14.3l-0.4-4h22.1L35.3,27z"/>
</g>
</svg>
