<?xml version="1.0" encoding="utf-8"?>
<!-- Generator: Adobe Illustrator 18.0.0, SVG Export Plug-In . SVG Version: 6.00 Build 0)  -->
<!DOCTYPE svg PUBLIC "-//W3C//DTD SVG 1.0//EN" "http://www.w3.org/TR/2001/REC-SVG-20010904/DTD/svg10.dtd">
<svg version="1.0" id="Layer_1" xmlns="http://www.w3.org/2000/svg" xmlns:xlink="http://www.w3.org/1999/xlink" x="0px" y="0px"
	 viewBox="0 0 50 50" enable-background="new 0 0 50 50" xml:space="preserve">
<g>
	<path fill="#FFFFFF" d="M10,36c-1.4,0-2.7-1.2-2.7-2.6c0-1.4,1.2-2.6,2.7-2.6c1.6,0,2.7,1.2,2.7,2.6C12.8,34.8,11.5,36,10,36L10,36
		z M43.4,21.9c-0.3-2.1-1.6-3.8-3.2-5l-0.7-0.5L39,17c-1,1.2-1.4,3.2-1.3,4.8c0.1,1.2,0.5,2.3,1.2,3.2c-0.5,0.3-1.2,0.5-1.7,0.8
		c-1.2,0.4-2.3,0.5-3.5,0.5H0.2l-0.1,0.8c-0.2,2.5,0.1,5,1.2,7.4l0.5,0.9v0.1c3.1,5.2,8.7,7.5,14.7,7.5c11.7,0,21.2-5,25.7-15.9
		c3,0.1,6-0.6,7.4-3.5l0.4-0.6l-0.6-0.4C47.7,21.5,45.4,21.4,43.4,21.9L43.4,21.9L43.4,21.9z M26.7,19.8h-5.1v5h5.1V19.8z
		 M26.7,13.5h-5.1v5h5.1V13.5z M26.7,7h-5.1v5h5.1V7z M32.9,19.8h-5v5h5L32.9,19.8L32.9,19.8z M14.2,19.8h-5v5h5L14.2,19.8
		L14.2,19.8z M20.5,19.8h-5v5h5L20.5,19.8L20.5,19.8z M7.9,19.8h-5v5H8L7.9,19.8L7.9,19.8z M20.5,13.5h-5v5h5L20.5,13.5L20.5,13.5z
		 M14.1,13.5h-5v5h5L14.1,13.5L14.1,13.5L14.1,13.5z"/>
</g>
</svg>
