<?xml version="1.0" encoding="utf-8"?>
<!-- Generator: Adobe Illustrator 18.0.0, SVG Export Plug-In . SVG Version: 6.00 Build 0)  -->
<!DOCTYPE svg PUBLIC "-//W3C//DTD SVG 1.0//EN" "http://www.w3.org/TR/2001/REC-SVG-20010904/DTD/svg10.dtd">
<svg version="1.0" id="Layer_1" xmlns="http://www.w3.org/2000/svg" xmlns:xlink="http://www.w3.org/1999/xlink" x="0px" y="0px"
	 viewBox="0 0 50 50" enable-background="new 0 0 50 50" xml:space="preserve">
<title>Git icon</title>
<path fill="#FFFFFF" d="M49.1,22.8L27.2,0.9c-1.3-1.3-3.3-1.3-4.6,0l-4.5,4.5l5.7,5.7c1.3-0.4,2.9-0.1,3.9,0.9
	c1.1,1.1,1.4,2.6,0.9,4l5.5,5.5c1.3-0.5,2.9-0.2,4,0.9c1.5,1.5,1.5,3.9,0,5.4c-1.5,1.5-3.9,1.5-5.4,0c-1.1-1.1-1.4-2.8-0.8-4.2
	l-5.2-5.2v13.6c0.4,0.2,0.7,0.4,1,0.7c1.5,1.5,1.5,3.9,0,5.4c-1.5,1.5-3.9,1.5-5.4,0c-1.5-1.5-1.5-3.9,0-5.4
	c0.4-0.4,0.8-0.7,1.3-0.8V18.4c-0.5-0.2-0.9-0.5-1.2-0.8c-1.1-1.1-1.4-2.8-0.8-4.2l-5.6-5.7l-15,15c-1.2,1.3-1.2,3.3,0,4.6
	l21.8,21.8c1.3,1.3,3.3,1.3,4.6,0l21.7-21.7C50.3,26.1,50.3,24,49.1,22.8"/>
</svg>
