<?xml version="1.0" encoding="utf-8"?>
<!-- Generator: Adobe Illustrator 18.0.0, SVG Export Plug-In . SVG Version: 6.00 Build 0)  -->
<!DOCTYPE svg PUBLIC "-//W3C//DTD SVG 1.0//EN" "http://www.w3.org/TR/2001/REC-SVG-20010904/DTD/svg10.dtd">
<svg version="1.0" id="Layer_1" xmlns="http://www.w3.org/2000/svg" xmlns:xlink="http://www.w3.org/1999/xlink" x="0px" y="0px"
	 viewBox="0 0 50 50" enable-background="new 0 0 50 50" xml:space="preserve">
<g>
	<path fill="#FFFFFF" d="M10.6,0h2.3v2.2h2.1V0h2.3v6.7h-2.3V4.5h-2.1v2.3h-2.3L10.6,0z"/>
	<path fill="#FFFFFF" d="M20.1,2.2h-2V0h6.2v2.2h-2v4.5h-2.3L20.1,2.2z"/>
	<path fill="#FFFFFF" d="M25.3,0h2.4l1.4,2.4L30.6,0h2.4v6.7h-2.2V3.4l-1.6,2.4h0l-1.6-2.4v3.3h-2.2V0z"/>
	<path fill="#FFFFFF" d="M34.1,0h2.3v4.5h3.2v2.2h-5.4V0z"/>
	<path fill="#FFFFFF" d="M10.5,46L6.3,9.8h37.5L39.5,46L25,50L10.5,46z M19.1,26.2l-0.4-4.5h17l0.4-4.4H13.9l1.2,13.4h15.4l-0.5,5.8
		L25,37.7l0,0L20,36.4l-0.3-3.5h-4.5l0.6,7l9.1,2.5l9.1-2.5l1.1-12.4l0.1-1.2H19.1z"/>
</g>
</svg>
