<?xml version="1.0" encoding="utf-8"?>
<!-- Generator: Adobe Illustrator 18.0.0, SVG Export Plug-In . SVG Version: 6.00 Build 0)  -->
<!DOCTYPE svg PUBLIC "-//W3C//DTD SVG 1.0//EN" "http://www.w3.org/TR/2001/REC-SVG-20010904/DTD/svg10.dtd">
<svg version="1.0" id="Layer_1" xmlns="http://www.w3.org/2000/svg" xmlns:xlink="http://www.w3.org/1999/xlink" x="0px" y="0px"
	 viewBox="0 0 50 50" enable-background="new 0 0 50 50" xml:space="preserve">
<g>
	<title>ionicons-v5_logos</title>
	<path fill="#FFFFFF" d="M0,0v50h50V0H0z M26.8,38.8c0,4.9-2.9,7.2-7,7.2c-3.8,0-5.9-1.9-7.1-4.3l0,0l3.8-2.3
		c0.7,1.3,1.3,2.4,2.9,2.4c1.3,0,2.4-0.6,2.4-2.9V23.2h4.9V38.8z M37.9,46c-4.4,0-7.2-2-8.6-4.7l0,0l3.8-2.2c1,1.6,2.3,2.7,4.6,2.7
		c1.9,0,3.1-0.9,3.1-2.2c0-1.6-1.2-2.2-3.3-3.1L36.4,36c-3.4-1.4-5.6-3.3-5.6-7.1c0-3.5,2.7-6.1,6.9-6.1c3,0,5.1,0.9,6.7,3.6
		l-3.7,2.4c-0.8-1.4-1.7-2-3-2c-1.4,0-2.2,0.9-2.2,2c0,1.4,0.9,2,2.9,2.9l1.2,0.5c4,1.7,6.2,3.5,6.2,7.4C45.7,43.8,42.3,46,37.9,46z
		"/>
</g>
</svg>
