<?xml version="1.0" encoding="utf-8"?>
<!-- Generator: Adobe Illustrator 18.0.0, SVG Export Plug-In . SVG Version: 6.00 Build 0)  -->
<!DOCTYPE svg PUBLIC "-//W3C//DTD SVG 1.0//EN" "http://www.w3.org/TR/2001/REC-SVG-20010904/DTD/svg10.dtd">
<svg version="1.0" id="Layer_1" xmlns="http://www.w3.org/2000/svg" xmlns:xlink="http://www.w3.org/1999/xlink" x="0px" y="0px"
	 viewBox="0 0 50 50" enable-background="new 0 0 50 50" xml:space="preserve">
<g>
	<title>NestJS icon</title>
	<path fill="#FFFFFF" d="M29.2,0.9c-0.3,0-0.7,0.1-1,0.2c0.6,0.4,1,1,1.2,1.6c0,0.1,0,0.1,0.1,0.2c0,0.1,0,0.1,0,0.2
		c0,1.1-0.3,1.2-0.5,1.9c-0.4,0.8-0.3,1.7,0.2,2.5c0,0.1,0.1,0.2,0.1,0.3c-0.5-3.2,2.2-3.6,2.6-4.6c0-0.9-0.7-1.4-1.2-1.8
		C30.3,1.1,29.8,0.9,29.2,0.9L29.2,0.9z M33.2,1.6c0,0.3,0,0.2,0,0.4c0,0.1,0,0.2,0,0.3c0,0.1-0.1,0.2-0.1,0.3C33,2.7,33,2.8,33,2.9
		l-0.1,0.3c0,0.1-0.1,0.1-0.1,0.2l-0.1,0.1c-0.1,0.1-0.1,0.2-0.2,0.2c-0.1,0.1-0.1,0.2-0.2,0.2v0C32.2,4,32.1,4.1,32,4.1
		c-0.3,0.2-0.6,0.3-0.8,0.5c-0.1,0.1-0.2,0.1-0.2,0.2c-0.1,0.1-0.2,0.1-0.2,0.2c-0.1,0.1-0.1,0.1-0.2,0.2c-0.1,0.1-0.1,0.2-0.2,0.2
		c-0.1,0.1-0.1,0.2-0.2,0.3C30,5.9,30,6,30,6.1c0,0.1-0.1,0.2-0.1,0.3c0,0.1-0.1,0.2-0.1,0.3c0,0.1,0,0.1,0,0.2c0,0.1,0,0.1,0,0.2
		c0,0.1,0,0.2,0,0.3c0,0.1,0,0.1,0,0.2c0,0.1,0,0.2,0,0.3c0,0.1,0,0.2,0.1,0.3c0,0.1,0.1,0.2,0.1,0.3c0,0.1,0.1,0.1,0.1,0.2
		l-2.9-1.1c-0.5-0.1-1-0.3-1.4-0.4L24.9,7c-0.7-0.1-1.5-0.3-2.3-0.3c0,0,0,0-0.1,0c-1.3-0.1-2.6-0.1-3.9-0.1
		c-0.8,0.1-1.5,0.1-2.3,0.3c-0.6,0.1-1.1,0.2-1.7,0.4l-0.6,0.1c-0.2,0.1-0.4,0.2-0.5,0.2l-0.4,0.2c0,0,0,0-0.1,0
		C13,7.9,12.9,7.9,12.8,8c-0.2,0.1-0.3,0.2-0.5,0.2c-0.1,0-0.2,0.1-0.2,0.1c0,0-0.1,0-0.1,0.1c-0.1,0.1-0.2,0.1-0.3,0.2
		c-0.1,0.1-0.2,0.1-0.3,0.2c-0.1,0.1-0.2,0.1-0.2,0.2c0,0,0,0,0,0C11,9,10.9,9.1,10.8,9.1l0,0l-0.2,0.1c0,0-0.1,0-0.1,0.1
		c-0.1,0.1-0.1,0.1-0.2,0.2c0,0,0,0-0.1,0.1c-0.1,0.1-0.1,0.1-0.2,0.2c0,0,0,0,0,0C10,9.9,9.9,10,9.8,10c0,0,0,0,0,0
		c-0.1,0.1-0.1,0.1-0.2,0.2c0,0-0.1,0-0.1,0.1c-0.1,0.1-0.1,0.2-0.2,0.2c0,0,0,0,0,0.1c-0.1,0.1-0.2,0.2-0.3,0.3l0,0
		c-0.2,0.2-0.4,0.4-0.6,0.6c-0.2,0.2-0.5,0.4-0.7,0.6c-0.5,0.3-1,0.6-1.5,0.8c-0.3,0.1-0.5,0.2-0.8,0.3c-0.5,0.1-1.1,0.3-1.5,0.4
		c-0.1,0-0.2,0-0.3,0l-0.3,0.1l-0.3,0.1c-0.1,0-0.2,0.1-0.3,0.1c-0.1,0.1-0.2,0.1-0.3,0.2C2.1,14.2,2,14.3,2,14.4
		c-0.1,0.1-0.2,0.1-0.2,0.2c-0.1,0.1-0.1,0.2-0.2,0.2C1.4,15,1.4,15,1.3,15.1c-0.1,0.1-0.1,0.2-0.2,0.3C1.1,15.5,1,15.6,1,15.7
		c0,0.1-0.1,0.2-0.1,0.3c0,0.1-0.1,0.2-0.1,0.3c0,0,0,0,0,0c0,0.1,0,0.3,0,0.3c0,0.1,0,0.2,0,0.2c0,0.2,0,0.4,0.1,0.6v0
		c0,0.1,0.1,0.2,0.1,0.2c0,0.1,0.1,0.1,0.2,0.2c0.1,0.1,0.1,0.1,0.2,0.2c0.1,0.1,0.2,0.1,0.2,0.2C1.9,18.7,2,18.8,2.4,19
		c0.1,0,0.1,0.1,0.2,0.1c0,0,0,0,0,0c0,0,0,0,0,0.1c0,0.2,0.1,0.4,0.2,0.6c0,0.1,0.1,0.1,0.1,0.2c0,0,0,0.1,0,0.1
		c0,0.1,0.1,0.2,0.1,0.3l0.2,0.3c0.1,0.1,0.1,0.2,0.2,0.2c0.1,0.1,0.1,0.1,0.2,0.2c0,0,0,0,0,0c0.1,0.1,0.1,0.1,0.2,0.2
		c0.1,0.1,0.2,0.1,0.3,0.2c0.1,0.1,0.2,0.1,0.3,0.1c0.1,0,0.2,0.1,0.2,0.1c0,0,0,0,0.1,0c0.1,0,0.1,0,0.2,0c0,0.7,0,1.3,0.1,1.5
		c0.1,0.2,0.7-0.5,1.2-1.4c-0.1,0.9-0.1,1.9,0,2.2c0.1,0.3,0.9-0.7,1.5-1.7c8.9-2,16.9,4.1,17.8,12.7c-0.2-1.4-1.8-2.1-2.6-1.9
		c-0.4,0.9-1,2.1-2,2.8c0.1-0.8,0.1-1.7-0.1-2.5c-0.3,1.2-0.8,2.2-1.6,3.1c-1.2,0.1-2.4-0.5-3-1.4c-0.1,0-0.1-0.1-0.1-0.2
		c0-0.1-0.1-0.2-0.1-0.3c0-0.1-0.1-0.2-0.1-0.3c0-0.1,0-0.2,0-0.3v-0.2c0-0.1,0-0.2,0.1-0.3c0-0.1,0.1-0.2,0.1-0.3
		c0-0.1,0.1-0.2,0.1-0.3c0.2-0.6,0.2-1.1-0.2-1.4c-0.1,0-0.2-0.1-0.2-0.1c0,0-0.1,0-0.2-0.1l-0.1,0c-0.1,0-0.2,0-0.3-0.1
		c-0.1,0-0.2,0-0.3,0c-0.1,0-0.2,0-0.3,0c-0.1,0-0.1,0-0.2,0c-0.1,0-0.2,0-0.3,0c-0.1,0-0.2,0-0.3,0c-0.1,0-0.2,0.1-0.3,0.1
		c-0.1,0-0.2,0.1-0.2,0.1c-0.1,0-0.1,0.1-0.2,0.1c-2.9,1.9-1.2,6.3,0.8,7.6c-0.7,0.1-1.5,0.3-1.7,0.5l0,0c0.5,0.3,1.1,0.6,1.7,0.8
		c0.8,0.3,1.6,0.5,2,0.6v0c1,0.2,2.1,0.3,3.1,0.2c5.5-0.4,10.1-4.6,10.9-10.1l0.1,0.3c0,0.2,0.1,0.5,0.1,0.7v0c0,0.1,0,0.2,0.1,0.3
		v0c0,0.1,0,0.2,0,0.3c0,0.1,0,0.3,0,0.4V34c0,0.1,0,0.1,0,0.2c0,0.1,0,0.2,0,0.2v0.2c0,0.1,0,0.2,0,0.2c0,0.1,0,0.1,0,0.2
		c0,0.1,0,0.2,0,0.3c0,0,0,0.1,0,0.1l0,0.3c0,0,0,0.1,0,0.1c0,0.1,0,0.2-0.1,0.4v0l-0.1,0.4v0l-0.1,0.3c0,0,0,0,0,0.1
		c0,0.1-0.1,0.2-0.1,0.3v0c0,0.1-0.1,0.2-0.1,0.4c0,0,0,0,0,0l-0.1,0.4c0,0.1-0.1,0.2-0.1,0.4c-0.1,0.1-0.1,0.2-0.1,0.4
		c-0.1,0.1-0.1,0.2-0.1,0.4h0c0,0.1-0.1,0.2-0.2,0.3c0,0,0,0.1,0,0.1c0,0,0,0,0,0c-0.8,1.7-2,3.1-3.5,4.2c-0.1,0.1-0.2,0.1-0.3,0.2
		c0,0-0.1,0-0.1,0.1c-0.1,0.1-0.2,0.1-0.3,0.2l0,0.1h0l0.5-0.1h0c0.3-0.1,0.6-0.1,1-0.2c0.1,0,0.2,0,0.3-0.1l0.2,0
		c0.1,0,0.2,0,0.3,0c0.1,0,0.1,0,0.2-0.1c1.2-0.3,2.5-0.7,3.6-1.2c-2,2.7-4.7,4.9-7.8,6.3c1.4-0.1,2.9-0.3,4.3-0.7
		c5-1.5,9.3-4.9,11.8-9.4c-0.5,2.9-1.7,5.6-3.4,8c1.2-0.8,2.3-1.7,3.3-2.8c2.8-2.9,4.6-6.6,5.3-10.6c0.4,2,0.5,4,0.4,6
		c9-12.6,0.7-25.6-2.7-29.1c0,0,0,0,0-0.1c0,0,0,0,0,0c0,0,0,0,0,0c0,0.1,0,0.3,0,0.4c0,0.3-0.1,0.6-0.1,0.8
		c-0.1,0.3-0.1,0.6-0.2,0.8c-0.1,0.3-0.2,0.5-0.3,0.8c-0.1,0.3-0.2,0.5-0.4,0.8c-0.3,0.5-0.6,1-1,1.4c-0.2,0.2-0.4,0.4-0.6,0.6
		c-0.1,0.1-0.2,0.2-0.4,0.3l-0.3,0.2c-0.2,0.2-0.5,0.3-0.7,0.5c-0.2,0.2-0.5,0.3-0.7,0.4c-0.3,0.1-0.5,0.2-0.8,0.4
		c-0.5,0.2-1.1,0.4-1.6,0.4c-0.3,0.1-0.6,0.1-0.9,0.1c-0.2,0-0.4,0-0.6,0c-0.3,0-0.6,0-0.9-0.1c-0.3,0-0.6-0.1-0.8-0.1
		c-0.3-0.1-0.6-0.1-0.8-0.2h0c0.3,0,0.6-0.1,0.8-0.1c0.6-0.1,1.1-0.2,1.6-0.4c0.3-0.1,0.5-0.2,0.8-0.4c0.3-0.1,0.5-0.3,0.7-0.4
		c0.2-0.2,0.5-0.3,0.7-0.5s0.4-0.4,0.6-0.6c0.2-0.2,0.4-0.4,0.6-0.6c0.2-0.2,0.4-0.4,0.5-0.7c0,0,0.1-0.1,0.1-0.1
		c0.1-0.2,0.2-0.4,0.4-0.6c0.3-0.5,0.5-1,0.7-1.6c0.1-0.3,0.2-0.5,0.2-0.8c0.1-0.3,0.1-0.6,0.1-0.8c0-0.3,0.1-0.6,0.1-0.8
		c0-0.2,0-0.4,0-0.6c0-0.3-0.1-0.6-0.1-0.8c0-0.3-0.1-0.6-0.2-0.8c-0.1-0.3-0.2-0.5-0.3-0.8c-0.1-0.3-0.2-0.5-0.3-0.8
		c-0.1-0.2-0.3-0.5-0.4-0.7c-0.2-0.2-0.3-0.5-0.5-0.7c-0.2-0.2-0.4-0.4-0.6-0.6c-0.1-0.1-0.2-0.2-0.3-0.3c-0.6-0.4-1.1-0.8-1.7-1.2
		c-0.1,0-0.2-0.1-0.2-0.1C34,1.9,33.6,1.7,33.2,1.6L33.2,1.6z"/>
</g>
</svg>
