<?xml version="1.0" encoding="utf-8"?>
<!-- Generator: Adobe Illustrator 18.0.0, SVG Export Plug-In . SVG Version: 6.00 Build 0)  -->
<!DOCTYPE svg PUBLIC "-//W3C//DTD SVG 1.0//EN" "http://www.w3.org/TR/2001/REC-SVG-20010904/DTD/svg10.dtd">
<svg version="1.0" id="Layer_1" xmlns="http://www.w3.org/2000/svg" xmlns:xlink="http://www.w3.org/1999/xlink" x="0px" y="0px"
	 viewBox="0 0 50 50" enable-background="new 0 0 50 50" xml:space="preserve">
<g>
	<path fill="#FFFFFF" d="M48,13.4L25,0L2,13.4v23.2l3.6,2.1l7.3-2.9c2-0.8,3.3-2.8,3.3-4.9V12.6h3.5v18.2c0,3.6-2.2,6.8-5.5,8.2
		l-4.7,1.9L25,50l23-13.4V13.4z M23.2,19.7c0-3.9,3.2-7.1,7.1-7.1h4.1c3.6,0,6.5,2.9,6.5,6.5v0.6h-3.5v-0.6c0-1.6-1.3-2.9-2.9-2.9
		h-4.1c-2,0-3.5,1.6-3.5,3.5s1.6,3.5,3.5,3.5h3.5c3.9,0,7.1,3.2,7.1,7.1c0,3.9-3.2,7.1-7.1,7.1h-3.5c-3.9,0-7.1-3.2-7.1-7.1h3.5
		c0,2,1.6,3.5,3.5,3.5h3.5c2,0,3.5-1.6,3.5-3.5s-1.6-3.5-3.5-3.5h-3.5C26.4,26.8,23.2,23.6,23.2,19.7z"/>
</g>
</svg>
