<?xml version="1.0" encoding="utf-8"?>
<!-- Generator: Adobe Illustrator 18.0.0, SVG Export Plug-In . SVG Version: 6.00 Build 0)  -->
<!DOCTYPE svg PUBLIC "-//W3C//DTD SVG 1.0//EN" "http://www.w3.org/TR/2001/REC-SVG-20010904/DTD/svg10.dtd">
<svg version="1.0" id="Layer_1" xmlns="http://www.w3.org/2000/svg" xmlns:xlink="http://www.w3.org/1999/xlink" x="0px" y="0px"
	 viewBox="0 0 50 50" enable-background="new 0 0 50 50" xml:space="preserve">
<g>
	<path fill="none" d="M25,33.6c1.7,0,3.3-0.1,4.9-0.2c0.9-1.3,1.7-2.7,2.6-4.1c0.8-1.4,1.6-2.9,2.3-4.3c-0.7-1.4-1.4-2.8-2.3-4.3
		c-0.8-1.4-1.7-2.8-2.6-4.1c-1.6-0.1-3.2-0.2-4.9-0.2c-1.6,0-3.3,0.1-4.8,0.2c-0.9,1.3-1.8,2.7-2.6,4.1c-0.8,1.4-1.6,2.9-2.3,4.3
		c0.7,1.4,1.4,2.9,2.3,4.3c0.8,1.4,1.7,2.8,2.6,4.1C21.7,33.5,23.3,33.6,25,33.6z M25,19.9c2.8,0,5.1,2.3,5.1,5.1S27.8,30,25,30
		c-2.8,0-5.1-2.3-5.1-5.1S22.2,19.9,25,19.9z"/>
	<path fill="none" d="M25,15.3c1.4,0,2.7,0,4,0.1c-1.3-1.8-2.6-3.4-4-4.8c-1.4,1.4-2.7,3.1-4,4.8C22.3,15.3,23.6,15.3,25,15.3z"/>
	<path fill="none" d="M35.3,26.3c-0.6,1.2-1.2,2.4-1.9,3.6c-0.7,1.2-1.4,2.3-2.1,3.4c2.3-0.2,4.4-0.6,6.3-1.1
		C37,30.4,36.3,28.4,35.3,26.3z"/>
	<path fill="none" d="M25,28.9c2.2,0,3.9-1.8,3.9-3.9c0-2.2-1.8-3.9-3.9-3.9s-3.9,1.8-3.9,3.9C21.1,27.1,22.8,28.9,25,28.9z"/>
	<path fill="none" d="M37.8,16.7c0.1-0.5,0.3-1,0.4-1.5c1.1-5.2,0.5-9.4-1.5-10.5c-0.4-0.2-0.9-0.3-1.5-0.3c-2.1,0-4.9,1.5-7.9,4
		c-0.5,0.4-1,0.9-1.5,1.4c1.6,1.7,3.1,3.6,4.7,5.8C33.1,15.7,35.6,16.1,37.8,16.7z"/>
	<path fill="none" d="M18.6,16.8c-2.2,0.2-4.3,0.6-6.2,1c0.6,1.9,1.3,3.9,2.2,5.9c0.6-1.2,1.2-2.4,1.9-3.5
		C17.2,19,17.9,17.8,18.6,16.8z"/>
	<path fill="none" d="M18.7,33.3c-0.7-1.1-1.5-2.2-2.1-3.4c-0.7-1.2-1.3-2.3-1.9-3.5c-0.9,2-1.7,4.1-2.2,6
		C14.3,32.8,16.4,33.1,18.7,33.3z"/>
	<path fill="none" d="M31.3,16.7c0.7,1.1,1.4,2.2,2.1,3.4c0.7,1.2,1.3,2.4,1.9,3.5c0.9-2,1.6-4,2.2-5.8C35.6,17.3,33.5,17,31.3,16.7
		z"/>
	<path fill="none" d="M40.6,18.7c-0.6-0.2-1.3-0.4-2-0.6C38,20.3,37.1,22.6,36,25c1.2,2.5,2.1,4.8,2.8,7c0.5-0.1,0.9-0.3,1.3-0.4
		c5-1.7,8.4-4.3,8.4-6.6C48.4,22.8,45.4,20.3,40.6,18.7z"/>
	<path fill="none" d="M25,34.8c-1.4,0-2.7,0-4-0.1c1.3,1.8,2.7,3.4,4,4.9c1.3-1.4,2.6-3,4-4.9C27.7,34.7,26.3,34.8,25,34.8z"/>
	<path fill="none" d="M37.9,33.3c-2.2,0.5-4.8,0.9-7.4,1.2c-1.5,2.2-3.1,4.2-4.6,5.8c0.5,0.5,1.1,1.1,1.6,1.5
		c2.8,2.4,5.6,3.8,7.7,3.8c0.6,0,1.1-0.1,1.5-0.4c1.6-0.9,2.8-4.5,1.6-10.3C38.2,34.5,38.1,33.9,37.9,33.3z"/>
	<path fill="none" d="M12.1,16.7c2.3-0.5,4.7-0.9,7.3-1.2c1.5-2.1,3.1-4.1,4.7-5.8c-0.4-0.4-0.8-0.7-1.1-1.1c-3-2.7-6.2-4.3-8.4-4.3
		c-0.6,0-1.1,0.1-1.5,0.4c-1.9,1.1-2.5,5-1.5,9.9C11.8,15.3,12,16,12.1,16.7z"/>
	<path fill="none" d="M12.1,33.5c-0.2,0.7-0.4,1.5-0.5,2.2c-0.9,4.8-0.3,8.6,1.6,9.7c0.4,0.2,1,0.4,1.6,0.4c2.2,0,5.2-1.5,8.2-4.1
		c0.4-0.4,0.9-0.8,1.3-1.2c-1.6-1.7-3.2-3.7-4.7-5.8C16.8,34.3,14.3,34,12.1,33.5z"/>
	<path fill="none" d="M14,25c-1.1-2.4-2-4.7-2.7-6.9c-0.8,0.2-1.5,0.4-2.2,0.7c-4.6,1.6-7.6,4.1-7.6,6.2c0,1.9,2.5,4.7,8.1,6.6
		c0.6,0.2,1.1,0.4,1.7,0.5C12,29.8,12.9,27.4,14,25z"/>
	<path fill="#FFFFFF" d="M25,30c2.8,0,5.1-2.3,5.1-5.1s-2.3-5.1-5.1-5.1c-2.8,0-5.1,2.3-5.1,5.1S22.2,30,25,30z M25,21.1
		c2.2,0,3.9,1.8,3.9,3.9c0,2.2-1.8,3.9-3.9,3.9s-3.9-1.8-3.9-3.9C21.1,22.8,22.8,21.1,25,21.1z"/>
	<path fill="#FFFFFF" d="M41,17.6c-0.7-0.2-1.3-0.4-2.1-0.6c0.1-0.5,0.3-1,0.4-1.6c1.2-5.8,0.4-10.4-2.1-11.8
		c-2.3-1.3-6.5,0.2-10.7,3.8c-0.5,0.5-1,1-1.6,1.5c-0.4-0.4-0.8-0.8-1.2-1.1C19.5,3.9,15,2.3,12.6,3.7c-2.3,1.4-3.1,5.6-2.1,11.1
		c0.1,0.7,0.3,1.4,0.5,2.1c-0.8,0.2-1.6,0.4-2.3,0.7c-5.2,1.8-8.4,4.6-8.4,7.3c0,2.8,3.5,5.8,8.9,7.7c0.6,0.2,1.2,0.4,1.8,0.5
		c-0.2,0.8-0.4,1.5-0.5,2.2c-1,5.4-0.2,9.6,2.1,10.9c0.6,0.3,1.3,0.5,2.2,0.5c2.5,0,5.7-1.6,8.9-4.4c0.5-0.4,0.9-0.8,1.4-1.3
		c0.6,0.6,1.1,1.1,1.7,1.6c3.1,2.7,6.1,4.1,8.4,4.1c0.8,0,1.5-0.2,2.1-0.5c2.4-1.4,3.3-5.9,2.2-11.5c-0.1-0.6-0.3-1.2-0.4-1.8
		c0.5-0.1,0.9-0.3,1.4-0.4c5.7-1.9,9.2-4.8,9.2-7.7C49.6,22.3,46.3,19.4,41,17.6z M27.3,8.3c2.9-2.5,5.8-4,7.9-4
		c0.6,0,1.1,0.1,1.5,0.3c2,1.1,2.6,5.4,1.5,10.5c-0.1,0.5-0.2,1-0.4,1.5c-2.3-0.6-4.8-0.9-7.4-1.2c-1.5-2.2-3.1-4.1-4.7-5.8
		C26.3,9.2,26.8,8.7,27.3,8.3z M14.6,26.4c0.6,1.2,1.2,2.4,1.9,3.5c0.7,1.2,1.4,2.3,2.1,3.4c-2.3-0.2-4.4-0.5-6.2-1
		C13,30.4,13.7,28.4,14.6,26.4z M14.6,23.7c-0.9-2-1.6-4-2.2-5.9c1.9-0.5,4-0.8,6.2-1c-0.7,1.1-1.4,2.2-2.1,3.4
		C15.8,21.3,15.2,22.5,14.6,23.7z M17.5,29.3c-0.8-1.4-1.6-2.9-2.3-4.3c0.7-1.4,1.4-2.9,2.3-4.3c0.8-1.4,1.7-2.8,2.6-4.1
		c1.6-0.1,3.2-0.2,4.8-0.2c1.6,0,3.3,0.1,4.9,0.2c0.9,1.3,1.8,2.7,2.6,4.1c0.8,1.5,1.6,2.9,2.3,4.3c-0.7,1.4-1.4,2.9-2.3,4.3
		c-0.8,1.5-1.7,2.8-2.6,4.1c-1.6,0.1-3.2,0.2-4.9,0.2c-1.7,0-3.3-0.1-4.8-0.2C19.2,32.1,18.3,30.7,17.5,29.3z M33.4,29.9
		c0.7-1.2,1.3-2.4,1.9-3.6c1,2.1,1.7,4.1,2.3,5.9c-1.9,0.5-4,0.8-6.3,1.1C32,32.2,32.7,31.1,33.4,29.9z M35.3,23.6
		c-0.6-1.2-1.2-2.3-1.9-3.5c-0.7-1.2-1.4-2.3-2.1-3.4c2.2,0.2,4.3,0.6,6.2,1.1C36.9,19.7,36.2,21.6,35.3,23.6z M29,15.4
		c-1.3-0.1-2.7-0.1-4-0.1c-1.3,0-2.7,0-4,0.1c1.3-1.8,2.6-3.4,4-4.8C26.3,12,27.7,13.6,29,15.4z M13.2,4.7c0.4-0.2,0.9-0.4,1.5-0.4
		c2.2,0,5.3,1.6,8.4,4.3c0.4,0.3,0.7,0.7,1.1,1.1c-1.6,1.7-3.2,3.6-4.7,5.8c-2.6,0.2-5.1,0.6-7.3,1.2c-0.2-0.7-0.3-1.4-0.5-2
		C10.7,9.7,11.3,5.8,13.2,4.7z M9.6,31.5C4,29.6,1.5,26.9,1.5,25c0-2.2,3-4.6,7.6-6.2c0.7-0.2,1.5-0.5,2.2-0.7
		c0.7,2.2,1.6,4.6,2.7,6.9c-1.1,2.4-2,4.8-2.7,7C10.7,31.9,10.1,31.7,9.6,31.5z M22.9,41.6c-2.9,2.6-6,4.1-8.2,4.1
		c-0.6,0-1.2-0.1-1.6-0.4c-1.9-1.1-2.5-4.9-1.6-9.7c0.1-0.7,0.3-1.4,0.5-2.2c2.2,0.5,4.7,0.9,7.4,1.1c1.5,2.2,3.1,4.1,4.7,5.8
		C23.8,40.8,23.4,41.2,22.9,41.6z M25.1,39.5c-1.4-1.4-2.7-3.1-4-4.9c1.3,0.1,2.6,0.1,4,0.1c1.4,0,2.7,0,4-0.1
		C27.7,36.5,26.4,38.1,25.1,39.5z M36.7,45.4c-0.4,0.2-0.9,0.4-1.5,0.4c-2,0-4.8-1.4-7.7-3.8c-0.5-0.5-1.1-1-1.6-1.5
		c1.5-1.6,3.1-3.6,4.6-5.8c2.7-0.2,5.2-0.6,7.4-1.2c0.2,0.6,0.3,1.2,0.4,1.7C39.5,40.9,38.3,44.4,36.7,45.4z M40.1,31.5
		c-0.4,0.1-0.9,0.3-1.3,0.4c-0.7-2.2-1.6-4.5-2.8-7c1.1-2.4,2-4.7,2.7-6.9c0.7,0.2,1.4,0.4,2,0.6c4.8,1.6,7.8,4.1,7.8,6.3
		C48.4,27.2,45.1,29.9,40.1,31.5z"/>
</g>
</svg>
