<?xml version="1.0" encoding="utf-8"?>
<!-- Generator: Adobe Illustrator 18.0.0, SVG Export Plug-In . SVG Version: 6.00 Build 0)  -->
<!DOCTYPE svg PUBLIC "-//W3C//DTD SVG 1.0//EN" "http://www.w3.org/TR/2001/REC-SVG-20010904/DTD/svg10.dtd">
<svg version="1.0" id="Layer_1" xmlns="http://www.w3.org/2000/svg" xmlns:xlink="http://www.w3.org/1999/xlink" x="0px" y="0px"
	 viewBox="0 0 50 50" enable-background="new 0 0 50 50" xml:space="preserve">
<g>
	<title>TypeScript icon</title>
	<path fill="#FFFFFF" d="M0,25v25h50V0H0V25z M40.3,23c1.3,0.3,2.2,0.9,3.1,1.8c0.5,0.5,1.1,1.4,1.2,1.6c0,0.1-2.2,1.5-3.5,2.3
		c0,0-0.2-0.2-0.5-0.5c-0.6-0.9-1.3-1.3-2.4-1.4c-1.5-0.1-2.5,0.7-2.5,2c0,0.3,0.1,0.6,0.2,0.9c0.3,0.7,1,1.1,2.9,1.9
		c3.6,1.5,5.1,2.6,6.1,4c1.1,1.6,1.3,4.2,0.6,6.1c-0.8,2.1-2.8,3.5-5.5,4c-0.9,0.2-2.9,0.1-3.8,0c-2-0.4-3.9-1.3-5.1-2.7
		c-0.5-0.5-1.4-1.8-1.3-1.9c0,0,0.2-0.2,0.5-0.3c0.2-0.1,1.1-0.6,1.9-1.1l1.4-0.8l0.3,0.4c0.4,0.6,1.3,1.5,1.9,1.8
		c1.6,0.8,3.8,0.7,4.9-0.2c0.4-0.4,0.7-0.9,0.7-1.5c0-0.6-0.1-0.8-0.4-1.3c-0.4-0.6-1.2-1-3.4-2c-2.6-1.1-3.7-1.8-4.7-2.9
		c-0.6-0.7-1.1-1.6-1.4-2.5c-0.2-0.7-0.2-2.5-0.1-3.2c0.5-2.5,2.4-4.2,5.1-4.7C37.4,22.7,39.4,22.8,40.3,23z M28.6,25.1l0,2h-6.5
		v18.5h-4.6V27.1H11v-2c0-1.1,0-2,0.1-2.1c0,0,4-0.1,8.8,0l8.7,0L28.6,25.1z"/>
</g>
</svg>
