<?xml version="1.0" encoding="utf-8"?>
<!-- Generator: Adobe Illustrator 18.0.0, SVG Export Plug-In . SVG Version: 6.00 Build 0)  -->
<!DOCTYPE svg PUBLIC "-//W3C//DTD SVG 1.0//EN" "http://www.w3.org/TR/2001/REC-SVG-20010904/DTD/svg10.dtd">
<svg version="1.0" id="Layer_1" xmlns="http://www.w3.org/2000/svg" xmlns:xlink="http://www.w3.org/1999/xlink" x="0px" y="0px"
	 viewBox="0 0 50 50" enable-background="new 0 0 50 50" xml:space="preserve">
<title>Git icon</title>
<g>
	<path fill="#FFFFFF" d="M48.2,5.4L37.9,0.4c-1.2-0.6-2.6-0.3-3.6,0.6L14.7,19l-8.6-6.5c-0.8-0.6-1.9-0.6-2.7,0.1l-2.7,2.5
		c-0.9,0.8-0.9,2.3,0,3.1L8.1,25l-7.4,6.8c-0.9,0.8-0.9,2.3,0,3.1l2.7,2.5c0.7,0.7,1.9,0.7,2.7,0.1l8.6-6.5l19.7,18
		c0.9,0.9,2.4,1.2,3.5,0.6l10.3-5c1.1-0.5,1.8-1.6,1.8-2.8V8.2C50,7,49.3,5.9,48.2,5.4L48.2,5.4z M37.5,36.4L22.5,25l15-11.4V36.4z"
		/>
</g>
</svg>
